<?xml version="1.0" standalone="no"?>
<!DOCTYPE svg PUBLIC "-//W3C//DTD SVG 20010904//EN"
 "http://www.w3.org/TR/2001/REC-SVG-20010904/DTD/svg10.dtd">
<svg version="1.0" xmlns="http://www.w3.org/2000/svg"
 width="200.000000pt" height="200.000000pt" viewBox="0 0 200.000000 200.000000"
 preserveAspectRatio="xMidYMid meet">
<metadata>
Created by potrace 1.16, written by Peter Selinger 2001-2019
</metadata>
<g transform="translate(0.000000,200.000000) scale(0.100000,-0.100000)"
fill="#000000" stroke="none">
<path d="M0 1000 l0 -1000 1000 0 1000 0 0 1000 0 1000 -1000 0 -1000 0 0
-1000z m1215 642 c15 -12 59 -31 98 -43 60 -18 81 -30 135 -82 100 -96 102
-101 91 -359 -4 -120 -11 -235 -15 -255 -9 -52 -34 -99 -84 -158 -67 -81 -71
-92 -77 -252 -5 -105 -10 -149 -20 -159 -18 -17 -94 -19 -111 -2 -14 14 -15
82 -5 282 l6 138 68 67 c61 59 70 73 79 120 5 30 10 73 10 96 0 41 -1 43 -36
48 -49 8 -153 0 -247 -20 -88 -19 -93 -25 -85 -114 6 -64 -4 -69 -71 -34 -28
14 -93 39 -144 56 -108 36 -137 53 -137 78 0 35 23 42 66 21 46 -24 72 -21
162 22 42 19 67 39 77 58 18 34 20 129 3 165 -18 40 -31 30 -24 -19 l7 -43
-53 -23 c-29 -13 -74 -25 -100 -28 -46 -4 -48 -3 -48 20 0 14 -9 33 -19 42
-18 16 -21 16 -58 -2 -54 -28 -157 -139 -173 -186 -20 -62 -8 -150 33 -238 30
-66 43 -83 97 -122 34 -25 102 -69 151 -97 104 -60 107 -70 50 -135 -23 -26
-42 -60 -46 -82 -4 -20 -11 -43 -17 -49 -14 -17 -92 -17 -106 0 -6 7 -14 53
-17 102 l-7 90 -92 90 c-51 50 -98 97 -104 106 -19 26 -72 244 -72 299 0 57
16 102 62 173 27 42 32 63 44 170 14 127 23 151 76 190 18 14 52 22 110 27 52
5 98 16 123 28 29 15 73 24 155 31 169 14 231 10 265 -17z"/>
<path d="M856 1509 c-36 -10 -46 -24 -46 -65 0 -44 20 -57 72 -49 65 11 78 21
78 59 0 19 -6 38 -12 43 -21 16 -61 21 -92 12z"/>
<path d="M1020 1517 c0 -2 7 -48 15 -103 8 -54 15 -135 15 -179 0 -50 5 -86
12 -93 18 -18 52 -15 80 8 24 18 26 26 32 164 8 155 4 175 -41 195 -22 10
-113 16 -113 8z"/>
<path d="M1275 1460 c-11 -21 -15 -62 -15 -155 l0 -125 48 0 c90 0 92 2 92 89
0 98 -14 148 -53 189 -38 40 -52 40 -72 2z"/>
<path d="M675 1462 c-27 -2 -55 -8 -62 -14 -7 -6 -13 -32 -13 -58 0 -56 23
-84 64 -75 14 3 37 7 51 10 33 7 59 57 51 100 -7 37 -18 41 -91 37z"/>
</g>
</svg>
